<svg xmlns="http://www.w3.org/2000/svg" width="880" height="300" viewBox="0 0 880 300" font-family="system-ui,-apple-system,Segoe UI,Roboto,sans-serif">
  <rect width="880" height="300" fill="white"/>
  <text x="58" y="18" font-size="13" font-weight="600" fill="#1f2430">Prefill</text>
  <line x1="58" y1="260.0" x2="417" y2="260.0" stroke="#e5e7eb" stroke-width="1"/>
  <text x="50" y="264.0" font-size="10" text-anchor="end" fill="#6b7280">0</text>
  <line x1="58" y1="202.5" x2="417" y2="202.5" stroke="#e5e7eb" stroke-width="1"/>
  <text x="50" y="206.5" font-size="10" text-anchor="end" fill="#6b7280">100</text>
  <line x1="58" y1="145.0" x2="417" y2="145.0" stroke="#e5e7eb" stroke-width="1"/>
  <text x="50" y="149.0" font-size="10" text-anchor="end" fill="#6b7280">200</text>
  <line x1="58" y1="87.5" x2="417" y2="87.5" stroke="#e5e7eb" stroke-width="1"/>
  <text x="50" y="91.5" font-size="10" text-anchor="end" fill="#6b7280">300</text>
  <line x1="58" y1="30.0" x2="417" y2="30.0" stroke="#e5e7eb" stroke-width="1"/>
  <text x="50" y="34.0" font-size="10" text-anchor="end" fill="#6b7280">400</text>
  <text x="58.0" y="276" font-size="10" text-anchor="middle" fill="#6b7280">43</text>
  <text x="194.2" y="276" font-size="10" text-anchor="middle" fill="#6b7280">862</text>
  <text x="263.1" y="276" font-size="10" text-anchor="middle" fill="#6b7280">3k</text>
  <text x="333.7" y="276" font-size="10" text-anchor="middle" fill="#6b7280">18k</text>
  <text x="366.3" y="276" font-size="10" text-anchor="middle" fill="#6b7280">38k</text>
  <text x="398.4" y="276" font-size="10" text-anchor="middle" fill="#6b7280">77k</text>
  <text x="417.0" y="276" font-size="10" text-anchor="middle" fill="#6b7280">116k</text>
  <text x="237.5" y="293" font-size="10" text-anchor="middle" fill="#6b7280">prompt tokens</text>
  <path d="M58.0,219.1 L194.2,102.2 L263.1,69.7 L333.7,93.4 L366.3,108.7 L398.4,134.2 L417.0,155.3" fill="none" stroke="#2b6cb0" stroke-width="2.2" stroke-linejoin="round"/>
  <circle cx="58.0" cy="219.1" r="3" fill="#2b6cb0"/>
  <circle cx="194.2" cy="102.2" r="3" fill="#2b6cb0"/>
  <circle cx="263.1" cy="69.7" r="3" fill="#2b6cb0"/>
  <circle cx="333.7" cy="93.4" r="3" fill="#2b6cb0"/>
  <circle cx="366.3" cy="108.7" r="3" fill="#2b6cb0"/>
  <circle cx="398.4" cy="134.2" r="3" fill="#2b6cb0"/>
  <circle cx="417.0" cy="155.3" r="3" fill="#2b6cb0"/>
  <text x="413.0" y="146.3" font-size="10" text-anchor="end" fill="#2b6cb0" font-weight="600">prefill</text>
  <text x="50" y="18" font-size="10" text-anchor="end" fill="#6b7280">tok/s</text>
  <text x="463" y="18" font-size="13" font-weight="600" fill="#1f2430">Decode</text>
  <line x1="463" y1="260.0" x2="822" y2="260.0" stroke="#e5e7eb" stroke-width="1"/>
  <text x="455" y="264.0" font-size="10" text-anchor="end" fill="#6b7280">0</text>
  <line x1="463" y1="202.5" x2="822" y2="202.5" stroke="#e5e7eb" stroke-width="1"/>
  <text x="455" y="206.5" font-size="10" text-anchor="end" fill="#6b7280">10</text>
  <line x1="463" y1="145.0" x2="822" y2="145.0" stroke="#e5e7eb" stroke-width="1"/>
  <text x="455" y="149.0" font-size="10" text-anchor="end" fill="#6b7280">20</text>
  <line x1="463" y1="87.5" x2="822" y2="87.5" stroke="#e5e7eb" stroke-width="1"/>
  <text x="455" y="91.5" font-size="10" text-anchor="end" fill="#6b7280">30</text>
  <line x1="463" y1="30.0" x2="822" y2="30.0" stroke="#e5e7eb" stroke-width="1"/>
  <text x="455" y="34.0" font-size="10" text-anchor="end" fill="#6b7280">40</text>
  <text x="463.0" y="276" font-size="10" text-anchor="middle" fill="#6b7280">43</text>
  <text x="599.2" y="276" font-size="10" text-anchor="middle" fill="#6b7280">862</text>
  <text x="668.1" y="276" font-size="10" text-anchor="middle" fill="#6b7280">3k</text>
  <text x="738.7" y="276" font-size="10" text-anchor="middle" fill="#6b7280">18k</text>
  <text x="771.3" y="276" font-size="10" text-anchor="middle" fill="#6b7280">38k</text>
  <text x="803.4" y="276" font-size="10" text-anchor="middle" fill="#6b7280">77k</text>
  <text x="822.0" y="276" font-size="10" text-anchor="middle" fill="#6b7280">116k</text>
  <text x="642.5" y="293" font-size="10" text-anchor="middle" fill="#6b7280">prompt tokens</text>
  <path d="M463.0,42.8 L599.2,41.6 L668.1,49.8 L738.7,83.8 L771.3,120.2 L803.4,156.4 L822.0,176.6" fill="none" stroke="#d94f2b" stroke-width="2.2" stroke-linejoin="round"/>
  <circle cx="463.0" cy="42.8" r="3" fill="#d94f2b"/>
  <circle cx="599.2" cy="41.6" r="3" fill="#d94f2b"/>
  <circle cx="668.1" cy="49.8" r="3" fill="#d94f2b"/>
  <circle cx="738.7" cy="83.8" r="3" fill="#d94f2b"/>
  <circle cx="771.3" cy="120.2" r="3" fill="#d94f2b"/>
  <circle cx="803.4" cy="156.4" r="3" fill="#d94f2b"/>
  <circle cx="822.0" cy="176.6" r="3" fill="#d94f2b"/>
  <text x="818.0" y="167.6" font-size="10" text-anchor="end" fill="#d94f2b" font-weight="600">speculative</text>
  <path d="M463.0,125.9 L599.2,129.5 L668.1,129.5 L738.7,139.7 L771.3,150.8 L803.4,164.5 L822.0,174.6" fill="none" stroke="#6b7280" stroke-width="2.2" stroke-linejoin="round"/>
  <circle cx="463.0" cy="125.9" r="3" fill="#6b7280"/>
  <circle cx="599.2" cy="129.5" r="3" fill="#6b7280"/>
  <circle cx="668.1" cy="129.5" r="3" fill="#6b7280"/>
  <circle cx="738.7" cy="139.7" r="3" fill="#6b7280"/>
  <circle cx="771.3" cy="150.8" r="3" fill="#6b7280"/>
  <circle cx="803.4" cy="164.5" r="3" fill="#6b7280"/>
  <circle cx="822.0" cy="174.6" r="3" fill="#6b7280"/>
  <text x="818.0" y="165.6" font-size="10" text-anchor="end" fill="#6b7280" font-weight="600">autoregressive</text>
  <text x="455" y="18" font-size="10" text-anchor="end" fill="#6b7280">tok/s</text>
</svg>
