<svg xmlns="http://www.w3.org/2000/svg" width="920" height="360" viewBox="0 0 920 360" font-family="system-ui,-apple-system,Segoe UI,Roboto,Helvetica,Arial,sans-serif">
  <rect width="920" height="360" fill="white"/>
  <text x="62" y="28" font-size="14" font-weight="600" fill="#1f2430">Prefill</text>
  <text x="62" y="43" font-size="10.5" fill="#6b7280">tokens / second</text>
  <line x1="62" y1="308.0" x2="451" y2="308.0" stroke="#e8eaed" stroke-width="1"/>
  <text x="53" y="311.5" font-size="10.5" text-anchor="end" fill="#6b7280">0</text>
  <line x1="62" y1="246.5" x2="451" y2="246.5" stroke="#e8eaed" stroke-width="1"/>
  <text x="53" y="250.0" font-size="10.5" text-anchor="end" fill="#6b7280">100</text>
  <line x1="62" y1="185.0" x2="451" y2="185.0" stroke="#e8eaed" stroke-width="1"/>
  <text x="53" y="188.5" font-size="10.5" text-anchor="end" fill="#6b7280">200</text>
  <line x1="62" y1="123.5" x2="451" y2="123.5" stroke="#e8eaed" stroke-width="1"/>
  <text x="53" y="127.0" font-size="10.5" text-anchor="end" fill="#6b7280">300</text>
  <line x1="62" y1="62.0" x2="451" y2="62.0" stroke="#e8eaed" stroke-width="1"/>
  <text x="53" y="65.5" font-size="10.5" text-anchor="end" fill="#6b7280">400</text>
  <text x="62.0" y="326" font-size="10.5" text-anchor="middle" fill="#6b7280">43</text>
  <text x="284.2" y="326" font-size="10.5" text-anchor="middle" fill="#6b7280">3.9k</text>
  <text x="360.7" y="326" font-size="10.5" text-anchor="middle" fill="#6b7280">19k</text>
  <text x="396.1" y="326" font-size="10.5" text-anchor="middle" fill="#6b7280">38k</text>
  <text x="430.8" y="326" font-size="10.5" text-anchor="middle" fill="#6b7280">77k</text>
  <text x="451.0" y="326" font-size="10.5" text-anchor="middle" fill="#6b7280">116k</text>
  <text x="256.5" y="346" font-size="10.5" text-anchor="middle" fill="#6b7280">prompt depth (tokens)</text>
  <path d="M62.0,263.4 L209.6,135.6 L284.2,96.9 L360.7,123.1 L396.1,140.5 L430.8,168.9 L451.0,193.2" fill="none" stroke="#2b6cb0" stroke-width="2.4" stroke-linejoin="round" stroke-linecap="round"/>
  <circle cx="62.0" cy="263.4" r="3.2" fill="white" stroke="#2b6cb0" stroke-width="1.8"/>
  <circle cx="209.6" cy="135.6" r="3.2" fill="white" stroke="#2b6cb0" stroke-width="1.8"/>
  <circle cx="284.2" cy="96.9" r="3.2" fill="white" stroke="#2b6cb0" stroke-width="1.8"/>
  <circle cx="360.7" cy="123.1" r="3.2" fill="white" stroke="#2b6cb0" stroke-width="1.8"/>
  <circle cx="396.1" cy="140.5" r="3.2" fill="white" stroke="#2b6cb0" stroke-width="1.8"/>
  <circle cx="430.8" cy="168.9" r="3.2" fill="white" stroke="#2b6cb0" stroke-width="1.8"/>
  <circle cx="451.0" cy="193.2" r="3.2" fill="white" stroke="#2b6cb0" stroke-width="1.8"/>
  <circle cx="284.2" cy="96.9" r="4.6" fill="#2b6cb0"/>
  <text x="294.2" y="83.9" font-size="13" font-weight="700" text-anchor="start" fill="#2b6cb0">peak 343 tok/s</text>
  <text x="294.2" y="95.9" font-size="10.5" text-anchor="start" fill="#6b7280">at 3.9k depth</text>
  <text x="513" y="28" font-size="14" font-weight="600" fill="#1f2430">Decode</text>
  <text x="513" y="43" font-size="10.5" fill="#6b7280">tokens / second</text>
  <line x1="513" y1="308.0" x2="902" y2="308.0" stroke="#e8eaed" stroke-width="1"/>
  <text x="504" y="311.5" font-size="10.5" text-anchor="end" fill="#6b7280">0</text>
  <line x1="513" y1="246.5" x2="902" y2="246.5" stroke="#e8eaed" stroke-width="1"/>
  <text x="504" y="250.0" font-size="10.5" text-anchor="end" fill="#6b7280">10</text>
  <line x1="513" y1="185.0" x2="902" y2="185.0" stroke="#e8eaed" stroke-width="1"/>
  <text x="504" y="188.5" font-size="10.5" text-anchor="end" fill="#6b7280">20</text>
  <line x1="513" y1="123.5" x2="902" y2="123.5" stroke="#e8eaed" stroke-width="1"/>
  <text x="504" y="127.0" font-size="10.5" text-anchor="end" fill="#6b7280">30</text>
  <line x1="513" y1="62.0" x2="902" y2="62.0" stroke="#e8eaed" stroke-width="1"/>
  <text x="504" y="65.5" font-size="10.5" text-anchor="end" fill="#6b7280">40</text>
  <text x="513.0" y="326" font-size="10.5" text-anchor="middle" fill="#6b7280">43</text>
  <text x="735.2" y="326" font-size="10.5" text-anchor="middle" fill="#6b7280">3.9k</text>
  <text x="811.7" y="326" font-size="10.5" text-anchor="middle" fill="#6b7280">19k</text>
  <text x="847.1" y="326" font-size="10.5" text-anchor="middle" fill="#6b7280">38k</text>
  <text x="881.8" y="326" font-size="10.5" text-anchor="middle" fill="#6b7280">77k</text>
  <text x="902.0" y="326" font-size="10.5" text-anchor="middle" fill="#6b7280">116k</text>
  <text x="707.5" y="346" font-size="10.5" text-anchor="middle" fill="#6b7280">prompt depth (tokens)</text>
  <path d="M513.0,164.3 L660.6,168.5 L735.2,168.2 L811.7,179.2 L847.1,191.0 L881.8,205.8 L902.0,216.5" fill="none" stroke="#8b93a1" stroke-width="2.0" stroke-linejoin="round" stroke-linecap="round"/>
  <circle cx="513.0" cy="164.3" r="3.2" fill="white" stroke="#8b93a1" stroke-width="1.8"/>
  <circle cx="660.6" cy="168.5" r="3.2" fill="white" stroke="#8b93a1" stroke-width="1.8"/>
  <circle cx="735.2" cy="168.2" r="3.2" fill="white" stroke="#8b93a1" stroke-width="1.8"/>
  <circle cx="811.7" cy="179.2" r="3.2" fill="white" stroke="#8b93a1" stroke-width="1.8"/>
  <circle cx="847.1" cy="191.0" r="3.2" fill="white" stroke="#8b93a1" stroke-width="1.8"/>
  <circle cx="881.8" cy="205.8" r="3.2" fill="white" stroke="#8b93a1" stroke-width="1.8"/>
  <circle cx="902.0" cy="216.5" r="3.2" fill="white" stroke="#8b93a1" stroke-width="1.8"/>
  <path d="M513.0,66.7 L660.6,65.3 L735.2,74.4 L811.7,109.8 L847.1,154.6 L881.8,195.8 L902.0,218.0" fill="none" stroke="#d94f2b" stroke-width="2.4" stroke-linejoin="round" stroke-linecap="round"/>
  <circle cx="513.0" cy="66.7" r="3.2" fill="white" stroke="#d94f2b" stroke-width="1.8"/>
  <circle cx="660.6" cy="65.3" r="3.2" fill="white" stroke="#d94f2b" stroke-width="1.8"/>
  <circle cx="735.2" cy="74.4" r="3.2" fill="white" stroke="#d94f2b" stroke-width="1.8"/>
  <circle cx="811.7" cy="109.8" r="3.2" fill="white" stroke="#d94f2b" stroke-width="1.8"/>
  <circle cx="847.1" cy="154.6" r="3.2" fill="white" stroke="#d94f2b" stroke-width="1.8"/>
  <circle cx="881.8" cy="195.8" r="3.2" fill="white" stroke="#d94f2b" stroke-width="1.8"/>
  <circle cx="902.0" cy="218.0" r="3.2" fill="white" stroke="#d94f2b" stroke-width="1.8"/>
  <circle cx="660.6" cy="65.3" r="4.6" fill="#d94f2b"/>
  <text x="670.6" y="52.3" font-size="13" font-weight="700" text-anchor="start" fill="#d94f2b">peak 39 tok/s</text>
  <text x="670.6" y="64.3" font-size="10.5" text-anchor="start" fill="#6b7280">at 862 depth</text>
  <text x="894.0" y="72.0" font-size="11" text-anchor="end" fill="#d94f2b" font-weight="600">speculative</text>
  <line x1="802.0" y1="68.0" x2="820.0" y2="68.0" stroke="#d94f2b" stroke-width="2.4"/>
  <text x="894.0" y="88.0" font-size="11" text-anchor="end" fill="#8b93a1" font-weight="600">autoregressive</text>
  <line x1="802.0" y1="84.0" x2="820.0" y2="84.0" stroke="#8b93a1" stroke-width="2.4"/>
</svg>
